<svg width="24" height="24" viewBox="0 0 24 24" fill="none" xmlns="http://www.w3.org/2000/svg">
<path d="M18.7038 16.8413C20.7148 16.8413 22.8003 13.0857 22.8003 9.02064C22.8003 4.95546 20.7148 1.19995 18.7038 1.19995M18.7038 16.8413C16.6927 16.8413 14.6072 13.0857 14.6072 9.02064C14.6072 4.95546 16.6927 1.19995 18.7038 1.19995M18.7038 16.8413C18.7038 16.8413 6.04157 14.2344 4.55192 13.862C3.06226 13.4896 1.2002 11.5371 1.2002 9.02064C1.2002 6.50411 3.06226 4.55168 4.55192 4.17926C6.04157 3.80685 18.7038 1.19995 18.7038 1.19995M4.17988 14.2344V19.8206C4.17988 21.4661 5.51376 22.7999 7.15919 22.7999H7.90402C9.54949 22.7999 10.8833 21.4661 10.8833 19.8206V15.724" stroke="url(#1)" stroke-width="1.5"/>
<defs>
<linearGradient id="1" x1="1.2002" y1="11.9999" x2="22.8003" y2="11.9999" gradientUnits="userSpaceOnUse">
<stop stop-color="#AEFB2A"/>
<stop offset="0.4" stop-color="#57EB92"/>
<stop offset="0.715" stop-color="#57EBDE"/>
</linearGradient>
</defs>
</svg>
