<svg height="40px" width="40px" version="1.1" id="_x34_" xmlns="http://www.w3.org/2000/svg" xmlns:xlink="http://www.w3.org/1999/xlink" 
	 viewBox="0 0 512 512"  xml:space="preserve">
<g>
	<g>
		<path style="fill:#FFFFFF;" d="M494.406,17.657L376.968,135.095l-15.909,15.825v0.083l-81.624,81.624l-85.038,84.955
			l-20.573,20.572L21.489,490.575l-3.831,3.748C11.661,488.326,6.913,481.08,3.915,473C1.332,466.421,0,459.342,0,451.929V59.968
			C0,26.986,27.069,0,60.052,0h391.96c5.081,0,9.995,0.666,14.659,1.915C477.332,4.497,486.827,10.078,494.406,17.657z"/>
		<path style="fill:#FDFEFE;" d="M494.373,17.618L17.654,494.337c10.876,10.876,25.878,17.627,42.38,17.627h391.959
			c33.004,0,60.007-27.003,60.007-60.007V59.998C512,43.496,505.249,28.494,494.373,17.618z"/>
	</g>
	<g>
		<path style="fill:#D03328;" d="M111.691,96.283v5.33h17.824v52.973h6.663v-52.973h17.907v-5.33H111.691z"/>
		<path style="fill:#D03328;" d="M194.481,143.424v-30.567h-6.58v25.903c0,7.413-6.163,11.327-11.327,11.327
			c-7.246,0-9.745-5.664-9.745-13.742v-23.488h-6.58v24.654c0,14.326,7.663,17.99,14.243,17.99c7.413,0,11.827-4.248,13.826-7.496
			h0.25l0.333,6.58h5.997C194.731,151.337,194.481,147.755,194.481,143.424z"/>
		<path style="fill:#D03328;" d="M240.623,130.931c0-7.329-3.415-19.073-16.825-19.073c-11.66,0-19.323,9.412-19.323,22.488
			c0,12.493,7.58,21.072,20.239,21.072c6.58,0,11.161-1.499,13.576-2.582l-1.249-4.664c-2.665,1.083-5.997,2.166-11.411,2.166
			c-7.746,0-14.659-4.331-14.742-15.909h29.568C240.54,133.429,240.623,132.347,240.623,130.931z M211.056,129.682
			c0.666-5.747,4.165-13.077,12.16-13.077c8.496,0,10.994,7.412,10.911,13.077H211.056z"/>
		<path style="fill:#D03328;" d="M263.112,130.514c-5.581-2.332-8.079-3.998-8.079-7.579c0-3.415,2.582-6.247,7.329-6.247
			c3.915,0,6.913,1.499,8.496,2.499l1.916-4.831c-2.332-1.416-5.83-2.499-9.995-2.499c-8.745,0-14.159,5.331-14.159,11.827
			c0,5.081,3.748,8.995,11.078,11.827c5.747,2.166,8.079,4.331,8.079,8.246c0,3.748-2.915,6.746-8.746,6.746
			c-3.748,0-7.496-1.5-9.745-2.832l-1.832,4.914c2.915,1.665,7.079,2.831,11.327,2.831c9.495,0,15.408-4.914,15.408-12.327
			C274.189,136.761,270.108,133.263,263.112,130.514z"/>
		<path style="fill:#D03328;" d="M319.415,144.257V93.284h-6.663v25.07h-0.166c-1.999-3.498-6.247-6.496-12.66-6.496
			c-10.078,0-18.74,8.329-18.74,22.405c0,12.826,7.829,21.239,17.907,21.239c6.997,0,11.911-3.665,14.159-8.079h0.25l0.333,7.163
			h5.914C319.582,151.753,319.415,147.589,319.415,144.257z M312.752,137.594c0,6.664-4.747,12.66-11.91,12.66
			c-8.579,0-12.826-7.496-12.826-16.325c0-9.578,4.83-16.907,13.076-16.907c5.58,0,11.66,4.164,11.66,12.493V137.594z"/>
		<path style="fill:#D03328;" d="M361.06,151.004v-0.083c-0.166-1.999-0.166-4.165-0.166-6.33v-16.158
			c0-8.246-3.165-16.575-15.409-16.575c-4.914,0-9.745,1.249-13.243,3.498l1.582,4.331c2.915-1.999,6.83-2.998,10.577-2.998
			c9.911,0,9.911,7.995,9.911,11.493c-16.075-0.083-25.153,5.414-25.153,15.409c0,6.08,4.331,11.91,12.66,11.91
			c6.08,0,10.578-2.998,12.827-6.33h0.25l0.583,5.414h6.08C361.31,153.419,361.143,152.336,361.06,151.004z M354.396,140.759
			c0,5.081-4.581,9.828-10.994,9.828c-3.998,0-7.496-2.415-7.496-7.746c0-8.829,10.245-9.995,18.49-9.995V140.759z"/>
		<path style="fill:#D03328;" d="M399.456,112.857l-8.829,25.154c-0.999,3.248-2.082,6.33-2.749,8.911h-0.25
			c-0.749-2.582-1.665-5.83-2.748-8.745l-2.999-7.995l-6.496-17.324h-7.246l8.829,22.238l6.496,16.325
			c0.334,0.749,0.5,1.416,0.5,1.749c0,0.833-3.914,11.411-13.993,14.993l1.833,5.414c1.582-0.416,5.164-1.749,8.829-4.914
			c5.413-4.914,9.078-12.744,14.242-26.32l11.577-29.484H399.456z"/>
	</g>
	<path style="fill:#D03328;" d="M60.416,49.784h-1.402c-7.514,0-13.662-6.148-13.662-13.662V34.72
		c0-7.514,6.148-13.662,13.662-13.662h1.402c7.514,0,13.662,6.148,13.662,13.662v1.402C74.078,43.636,67.93,49.784,60.416,49.784z"
		/>
	<path style="fill:#D8D8D8;" d="M102.548,49.784h-1.402c-7.514,0-13.662-6.148-13.662-13.662V34.72
		c0-7.514,6.148-13.662,13.662-13.662h1.402c7.514,0,13.662,6.148,13.662,13.662v1.402C116.21,43.636,110.062,49.784,102.548,49.784
		z"/>
	<g>
		<polygon style="fill:#5D5E5E;" points="176.381,215.132 137.071,237.195 142.145,252.918 173.338,234.913 173.844,234.913 
			173.844,334.565 194.388,314.022 194.388,215.132 		"/>
		<polygon style="fill:#525252;" points="173.844,405.082 194.388,405.082 194.388,314.022 173.844,334.565 		"/>
		<polygon style="fill:#525252;" points="293.278,215.132 275.779,232.631 353.4,232.631 353.4,233.137 274.02,405.082 
			295.578,405.082 374.956,228.573 374.956,215.132 		"/>
		<polygon style="fill:#5D5E5E;" points="263.624,215.132 263.624,232.631 275.779,232.631 293.278,215.132 		"/>
	</g>
</g>
</svg>