<svg width="28" height="30" viewBox="0 0 28 30" fill="currentColor" xmlns="http://www.w3.org/2000/svg">
<path d="M27.8086 0.520838C27.7794 0.294959 27.6243 0.10535 27.4087 0.0319322C27.1931 -0.0414856 26.9545 0.013944 26.7935 0.175076L0.17319 26.7953C0.0611599 26.9073 -0.00183105 27.0594 -0.00183105 27.2179C-0.00183105 27.3764 0.0611599 27.5283 0.17319 27.6404L1.19324 28.6604C2.05703 29.5243 3.20547 30 4.42709 30C5.64871 30 6.7972 29.5243 7.66099 28.6604L14.0303 22.2911L16.4937 24.7545C16.6059 24.8668 16.7581 24.9295 16.9162 24.9295C16.9262 24.9295 16.9362 24.9292 16.9462 24.9287C17.1149 24.9202 17.2722 24.8408 17.379 24.7099L22.7966 18.078C24.7944 15.6325 26.2468 12.8528 27.1136 9.81637C27.9804 6.78005 28.2143 3.65249 27.8086 0.520838ZM6.81583 27.8153C6.17781 28.4534 5.32949 28.8047 4.42714 28.8047C3.5248 28.8047 2.67648 28.4534 2.03846 27.8153L1.44098 27.2179L10.199 18.4599L13.1852 21.446L6.81583 27.8153ZM21.871 17.322L16.8715 23.4421L11.0441 17.6147L26.7475 1.91132C27.1428 7.44948 25.3979 13.0044 21.871 17.322Z" />
<path d="M19.329 11.669C19.0957 11.4356 18.7173 11.4356 18.4839 11.669L13.1101 17.0428C12.8767 17.2762 12.8767 17.6546 13.1101 17.888C13.2268 18.0047 13.3797 18.063 13.5327 18.063C13.6856 18.063 13.8386 18.0047 13.9552 17.888L19.329 12.5142C19.5624 12.2808 19.5624 11.9024 19.329 11.669Z" />
<path d="M21.2697 9.72846C21.0363 9.49502 20.6579 9.49508 20.4245 9.72846L20.0762 10.0768C19.8428 10.3102 19.8428 10.6886 20.0762 10.922C20.1929 11.0387 20.3459 11.097 20.4988 11.097C20.6517 11.097 20.8047 11.0386 20.9214 10.922L21.2697 10.5736C21.503 10.3402 21.503 9.96184 21.2697 9.72846Z" />
</svg>
